<?xml version="1.0" standalone="no"?>
<!DOCTYPE svg PUBLIC "-//W3C//DTD SVG 20010904//EN"
 "http://www.w3.org/TR/2001/REC-SVG-20010904/DTD/svg10.dtd">
<svg version="1.0" xmlns="http://www.w3.org/2000/svg"
 width="1080.000000pt" height="1080.000000pt" viewBox="0 0 1080.000000 1080.000000"
 preserveAspectRatio="xMidYMid meet">
<metadata>
Created by potrace 1.14, written by Peter Selinger 2001-2017
</metadata>
<g transform="translate(0.000000,1080.000000) scale(0.100000,-0.100000)"
fill="#000000" stroke="none">
<path d="M1736 6607 c-16 -12 -16 -14 -2 -14 9 0 16 4 16 9 0 4 4 8 8 8 5 0 9
-6 9 -13 0 -9 -13 -13 -36 -13 -28 0 -35 -3 -33 -16 1 -9 -7 -23 -18 -31 -15
-10 -18 -17 -10 -22 8 -5 6 -13 -6 -26 -16 -18 -16 -19 1 -19 18 0 18 -1 -1
-14 -16 -12 -17 -17 -6 -28 11 -11 12 -10 6 7 -4 11 -4 17 0 14 4 -4 9 -16 11
-29 3 -17 1 -21 -13 -16 -16 6 -16 5 1 -8 17 -13 25 -32 9 -22 -5 3 -9 -1 -9
-8 0 -8 6 -12 14 -9 7 3 13 10 13 16 0 6 3 8 6 4 3 -3 2 -12 -2 -19 -11 -17
-12 -48 -2 -48 4 0 8 5 8 11 0 5 6 7 13 4 6 -4 3 1 -8 11 -18 15 -18 16 -2 10
10 -3 21 -6 23 -6 2 0 4 -9 4 -21 0 -11 -4 -18 -9 -15 -14 9 -21 -20 -8 -34 9
-10 9 -11 -2 -5 -16 9 -34 -15 -21 -30 6 -7 4 -22 -5 -38 -10 -19 -10 -25 -2
-20 21 13 36 12 30 -3 -3 -8 -8 -12 -12 -9 -4 2 -8 -3 -8 -11 0 -9 6 -13 16
-9 13 5 14 4 4 -6 -15 -15 -17 -33 -3 -24 5 3 7 0 4 -9 -3 -8 -13 -12 -22 -9
-14 4 -15 3 -3 -5 16 -11 24 -92 10 -92 -5 0 -9 -5 -9 -11 0 -5 5 -7 12 -3 7
4 8 3 4 -4 -4 -7 -16 -12 -27 -12 -11 0 -17 -5 -14 -10 4 -6 11 -7 17 -4 7 4
8 2 4 -5 -4 -6 -11 -9 -16 -6 -5 3 -20 0 -35 -7 -23 -10 -24 -13 -9 -21 11 -6
19 -5 25 4 7 11 9 11 9 1 0 -7 -7 -15 -15 -18 -20 -8 -19 -28 2 -45 11 -10 14
-10 9 -1 -4 7 -2 12 4 12 7 0 9 -7 6 -16 -4 -9 -2 -22 4 -29 8 -10 8 -15 -1
-21 -8 -5 -9 -3 -4 6 5 9 4 11 -4 6 -7 -5 -9 -12 -3 -19 5 -7 12 -20 16 -31 5
-14 3 -17 -11 -12 -14 6 -14 4 2 -14 11 -12 15 -21 10 -20 -24 5 -27 -1 -9
-16 13 -11 14 -14 3 -11 -9 3 -16 -1 -16 -9 0 -7 4 -11 9 -8 5 3 8 -7 7 -23
-1 -15 -1 -32 1 -38 5 -20 0 -36 -10 -30 -5 3 -3 -13 5 -36 14 -38 14 -40 -1
-28 -14 11 -16 10 -14 -6 4 -32 1 -38 -13 -27 -12 10 -13 3 -8 -51 1 -5 5 -6
10 -3 5 3 15 -2 22 -11 12 -14 12 -16 -1 -11 -11 4 -15 -1 -15 -17 0 -19 3
-21 15 -12 8 6 12 8 8 3 -4 -5 -2 -18 4 -30 10 -18 9 -19 -4 -9 -12 11 -14 9
-13 -10 2 -12 8 -21 14 -19 7 1 10 -2 6 -8 -3 -6 -11 -8 -16 -5 -5 4 -9 1 -9
-4 0 -6 4 -11 8 -11 5 0 9 -7 9 -15 0 -11 -4 -12 -14 -3 -11 8 -12 7 -7 -6 3
-9 10 -16 14 -16 5 0 8 -9 7 -20 -1 -11 -4 -20 -8 -20 -4 0 -6 -12 -4 -27 1
-16 8 -27 15 -25 6 1 9 -2 5 -8 -3 -6 -11 -8 -16 -5 -5 4 -9 1 -9 -4 0 -6 4
-11 8 -11 5 0 9 -7 9 -15 0 -11 -4 -12 -14 -3 -11 8 -12 7 -7 -6 3 -9 10 -16
14 -16 5 0 8 -9 7 -20 -1 -11 -5 -20 -10 -20 -5 0 -3 -8 4 -17 9 -11 10 -14 2
-9 -9 5 -11 2 -7 -8 4 -10 1 -16 -7 -16 -11 0 -11 -2 1 -9 8 -6 17 -8 22 -5 4
3 1 -7 -7 -22 -12 -23 -12 -29 1 -41 17 -18 19 -29 1 -15 -10 8 -13 6 -13 -9
0 -10 3 -19 6 -19 9 0 6 -32 -4 -48 -4 -6 -13 -12 -19 -12 -7 0 -6 4 3 11 11
8 9 9 -10 3 -14 -4 -35 -8 -46 -8 -14 0 -20 -5 -17 -13 3 -7 10 -10 17 -6 6 3
7 2 3 -2 -10 -12 -38 -15 -31 -4 3 5 0 9 -6 9 -6 0 -8 5 -4 12 4 7 3 8 -4 4
-6 -4 -8 -14 -5 -23 4 -10 2 -14 -4 -10 -6 4 -14 1 -16 -5 -4 -9 -6 -9 -6 1
-1 11 -5 10 -17 -5 -8 -10 -12 -13 -8 -5 5 10 3 13 -8 8 -9 -3 -20 -1 -25 4
-6 6 -10 4 -10 -5 0 -8 4 -13 8 -10 4 2 11 -1 15 -8 4 -7 4 -10 -1 -6 -12 11
-47 -11 -39 -25 4 -7 -3 -3 -16 8 -18 16 -22 17 -18 4 4 -11 1 -16 -10 -16
-48 0 -57 -3 -42 -13 12 -8 13 -10 1 -10 -8 0 -24 -8 -35 -17 -20 -17 -20 -17
-7 0 12 15 12 17 -3 11 -9 -3 -16 -10 -16 -16 0 -5 -4 -6 -10 -3 -5 3 -10 1
-10 -4 0 -6 7 -11 15 -11 8 0 15 -5 15 -12 0 -9 3 -9 12 0 15 15 28 15 28 1 0
-5 -5 -7 -12 -3 -7 5 -8 3 -4 -5 6 -9 13 -8 29 6 11 10 17 13 14 7 -4 -7 0
-14 8 -17 8 -4 12 -1 9 6 -2 7 4 13 16 14 13 1 18 -2 14 -10 -4 -7 -4 -9 1 -5
4 4 14 3 22 -4 7 -6 16 -8 20 -4 3 3 1 6 -5 6 -7 0 -12 4 -12 9 0 5 15 8 33 7
33 -3 69 12 61 26 -3 4 2 5 10 2 9 -3 16 -11 16 -17 0 -7 4 -7 12 1 7 7 16 12
22 12 5 0 -1 -9 -14 -20 -26 -22 -20 -27 10 -7 17 10 22 9 30 -3 5 -8 10 -10
10 -4 0 5 -5 15 -10 20 -7 7 -6 11 5 11 8 0 15 -6 15 -13 0 -8 6 -11 14 -8 8
3 24 1 35 -5 16 -9 29 -8 56 3 20 9 35 11 35 5 0 -6 6 -7 13 -3 8 6 8 3 -1 -9
-12 -15 -11 -15 17 -7 38 11 41 11 65 -2 10 -5 16 -6 13 -1 -3 5 3 9 14 9 10
0 19 -6 19 -13 0 -7 5 -13 10 -13 6 0 10 7 10 15 0 8 4 15 10 15 5 0 6 -7 3
-17 -4 -10 -2 -14 4 -10 6 4 18 0 26 -8 9 -8 22 -15 29 -15 10 0 9 3 -2 10
-12 7 -10 9 8 7 13 -1 21 -6 18 -14 -3 -7 -1 -15 5 -18 5 -4 8 -1 7 7 -4 16
52 14 63 -3 5 -8 8 -7 13 2 3 8 5 5 2 -7 -2 -16 2 -21 20 -20 13 1 27 6 31 10
4 5 2 6 -4 2 -8 -4 -13 -2 -13 6 0 9 -3 9 -10 -2 -7 -12 -9 -10 -8 7 2 19 4
20 26 5 13 -8 21 -21 18 -29 -4 -10 -2 -11 11 -5 11 7 21 5 31 -4 11 -11 17
-12 28 -3 11 9 14 8 15 -7 1 -14 3 -13 9 6 4 14 8 19 9 12 1 -7 4 -11 9 -8 11
7 47 -23 37 -31 -4 -5 -10 -2 -12 5 -3 6 -10 9 -15 6 -7 -5 -8 -2 -3 6 6 9 4
11 -5 5 -10 -6 -7 -12 11 -26 23 -17 24 -17 36 4 12 21 12 21 13 2 0 -17 2
-17 10 -5 8 13 10 12 10 -4 0 -19 0 -19 13 -1 11 14 16 15 22 5 6 -9 4 -11 -5
-5 -9 5 -11 4 -6 -4 6 -9 11 -9 24 1 9 8 13 8 9 2 -4 -7 0 -15 9 -18 10 -4 13
-2 8 7 -6 8 -3 8 8 -1 9 -8 16 -19 14 -25 -1 -7 -1 -9 1 -4 8 13 56 7 75 -9
16 -15 18 -15 24 -1 5 13 9 14 24 5 14 -9 22 -9 37 3 16 12 17 12 7 -1 -13
-17 -15 -52 -2 -44 5 3 6 9 3 14 -9 15 12 20 25 5 6 -7 19 -11 27 -8 13 5 15
2 10 -13 -7 -18 -6 -18 7 -1 7 9 17 17 21 17 4 0 4 -8 1 -17 -5 -15 -4 -15 9
1 13 17 15 18 15 3 0 -9 5 -17 11 -17 5 0 8 4 5 8 -3 5 1 9 8 9 9 0 12 -7 8
-16 -5 -14 -4 -14 12 -2 16 13 17 13 14 -4 -1 -10 3 -20 11 -23 10 -3 12 0 8
11 -3 9 -1 19 5 23 6 4 8 3 4 -4 -3 -6 -1 -14 6 -19 21 -12 38 -12 39 0 0 7 4
3 9 -8 7 -16 9 -17 9 -3 1 19 22 18 47 -2 16 -13 17 -13 9 0 -4 8 -5 12 0 8 4
-4 15 -2 23 5 13 9 14 9 8 0 -4 -8 -2 -13 4 -13 6 0 8 -6 4 -12 -4 -7 -4 -10
1 -6 4 4 14 0 22 -10 13 -15 13 -14 3 6 -7 13 -9 26 -6 29 3 3 8 -2 12 -11 8
-21 22 -20 47 2 11 9 18 12 14 7 -3 -6 -2 -17 4 -25 5 -10 9 -11 9 -3 0 18 28
5 33 -15 4 -15 5 -15 6 1 0 9 6 17 12 17 5 0 7 5 4 11 -4 6 2 5 14 -3 12 -7
21 -16 21 -20 0 -5 5 -8 11 -8 5 0 7 5 4 10 -3 6 -1 10 5 10 6 0 13 -7 16 -15
4 -8 11 -15 16 -15 6 0 5 6 -2 15 -12 15 0 22 14 8 3 -4 15 -7 26 -8 15 -1 17
1 8 12 -8 11 -7 12 6 7 9 -3 16 -9 16 -13 0 -16 30 -7 36 11 3 10 10 18 15 18
6 0 8 -3 6 -7 -3 -5 -1 -17 4 -28 7 -18 8 -18 8 -2 1 15 8 18 34 16 34 -3 61
7 53 20 -3 4 1 8 9 8 8 0 11 -5 8 -10 -4 -7 1 -7 13 -2 10 4 27 7 37 7 10 0
15 4 11 10 -5 7 -2 8 7 2 19 -11 40 -14 34 -4 -8 13 22 19 35 7 10 -9 11 -9 5
2 -6 11 -4 13 9 8 9 -4 15 -3 12 1 -3 4 4 14 16 21 11 7 17 8 14 2 -4 -5 -1
-13 5 -17 7 -4 9 -3 6 3 -4 6 1 19 11 30 9 10 13 13 9 7 -6 -9 -3 -12 11 -11
14 1 18 7 15 22 -3 12 -1 16 4 10 10 -13 28 -13 40 -1 4 5 3 6 -4 2 -6 -3 -14
-2 -18 4 -3 5 3 10 14 10 12 0 21 7 21 16 0 8 5 12 10 9 6 -3 10 -1 10 6 0 9
3 9 14 0 11 -9 16 -9 22 0 4 7 3 9 -3 6 -11 -7 -28 22 -18 31 3 3 5 1 5 -5 0
-5 7 -10 15 -10 11 0 12 4 3 14 -9 11 -7 12 7 7 13 -5 16 -4 11 4 -4 7 -2 12
5 12 8 0 8 4 -1 15 -11 14 -10 14 13 6 21 -8 25 -7 20 4 -3 8 -8 13 -13 10 -4
-2 -5 7 -2 20 2 15 0 25 -7 25 -7 0 -9 -5 -5 -12 5 -8 0 -7 -11 2 -17 14 -18
13 -12 -4 6 -15 4 -17 -12 -13 -11 3 -25 -1 -30 -7 -8 -9 -7 -13 4 -13 8 0 12
4 9 9 -3 4 2 5 11 2 19 -8 15 -13 -16 -19 -13 -3 -27 1 -31 8 -5 8 -8 7 -8 -6
0 -15 -3 -16 -22 -6 -20 11 -21 10 -11 -3 10 -12 10 -15 -2 -15 -8 0 -12 3
-10 7 2 4 -2 15 -9 26 -14 18 -11 48 3 39 4 -2 8 2 8 10 0 8 -4 12 -8 10 -4
-3 -4 19 -1 48 2 28 4 61 3 72 0 11 -1 35 -2 54 -1 23 -4 29 -10 20 -7 -11
-12 -12 -29 -1 -12 7 -20 8 -20 2 0 -5 -5 -10 -10 -10 -12 0 -9 22 5 32 6 5 5
8 -3 8 -7 0 -10 4 -7 10 3 6 -1 7 -10 3 -13 -5 -14 -7 -3 -14 8 -5 9 -9 2 -9
-6 0 -17 7 -24 15 -10 12 -10 15 3 15 10 0 14 6 11 15 -4 8 -11 12 -18 8 -6
-4 -5 1 3 10 16 20 25 23 15 5 -5 -10 -4 -10 6 -1 14 13 4 37 -12 27 -7 -4 -8
-2 -4 4 4 7 13 12 21 12 24 0 25 17 2 36 l-22 19 20 -25 c12 -15 14 -20 4 -12
-9 6 -18 10 -20 7 -3 -2 -5 6 -5 20 0 13 4 21 8 19 4 -3 8 2 8 11 0 10 -5 14
-12 10 -7 -4 -5 0 6 9 10 8 15 20 11 26 -4 6 -1 9 7 8 7 -2 12 5 12 15 -2 15
1 16 14 5 10 -9 13 -9 9 -1 -4 6 -3 14 3 18 6 4 7 13 1 23 -4 9 -6 23 -3 31 2
8 0 11 -5 8 -5 -3 -10 0 -10 8 0 8 4 12 9 9 13 -8 9 6 -6 21 -7 8 -17 11 -21
7 -4 -4 -6 -2 -5 3 5 22 -1 27 -17 14 -16 -12 -16 -12 0 8 18 20 17 21 -12 31
-16 6 -31 10 -33 9 -1 -1 -2 0 -1 2 1 2 -8 20 -21 40 -13 20 -21 42 -19 49 3
6 -3 12 -12 12 -9 0 -13 -4 -10 -10 3 -5 -2 -10 -12 -11 -12 0 -10 -4 9 -10
14 -6 29 -17 33 -26 5 -15 3 -14 -14 1 -21 19 -43 14 -35 -8 3 -8 0 -17 -7
-22 -8 -5 -10 -3 -4 7 8 12 6 12 -8 0 -13 -11 -17 -11 -17 -1 0 8 -2 11 -5 8
-9 -8 6 -38 16 -32 5 3 9 1 9 -4 0 -5 -11 -10 -25 -11 -47 -3 -52 -4 -52 -18
0 -9 4 -10 13 -2 8 7 14 7 19 -1 3 -5 4 -11 1 -11 -3 -1 -10 -3 -16 -4 -5 -1
-15 -3 -21 -4 -5 0 -7 -5 -4 -11 3 -5 -1 -10 -9 -10 -8 0 -18 -5 -22 -12 -5
-8 -2 -9 9 -5 9 3 19 1 23 -5 4 -6 3 -8 -3 -5 -6 4 -17 -1 -24 -10 -12 -15
-12 -16 3 -10 12 4 15 2 11 -8 -3 -8 -8 -13 -12 -11 -4 3 -8 -4 -8 -15 -2 -18
0 -19 15 -8 9 8 14 10 10 5 -4 -5 2 -16 14 -26 17 -13 18 -17 5 -17 -9 0 -14
4 -11 9 3 4 0 8 -5 8 -20 0 -11 -22 10 -27 14 -4 19 -11 16 -25 -5 -16 -3 -17
10 -6 14 12 15 11 5 -9 -17 -31 -16 -49 2 -34 11 9 16 9 22 0 4 -8 3 -9 -4 -5
-6 4 -17 -2 -24 -14 -16 -25 -30 -27 -21 -2 7 18 5 17 -17 -11 -7 -10 -9 -17
-4 -16 19 3 34 -1 34 -12 0 -5 -5 -7 -12 -3 -7 4 -8 3 -4 -5 4 -6 12 -9 17 -6
5 4 8 -4 6 -16 -2 -13 -9 -25 -15 -27 -15 -5 -16 -32 -1 -32 5 0 8 4 5 9 -3 5
0 14 8 20 19 16 45 -14 27 -32 -10 -9 -11 -8 -5 8 7 18 6 18 -9 6 -14 -11 -15
-16 -5 -29 11 -13 10 -14 -7 -4 -23 12 -67 47 -47 37 11 -6 12 -3 3 13 -13 25
-35 34 -50 19 -8 -8 -11 -7 -11 4 0 12 -2 12 -10 -1 -9 -13 -10 -13 -10 0 0
13 -1 13 -10 0 -8 -13 -10 -12 -10 3 0 20 -11 22 -29 5 -10 -11 -11 -10 -6 5
4 9 12 17 18 17 6 0 1 11 -11 23 -17 18 -19 24 -8 24 8 0 12 -5 9 -10 -4 -6
-1 -7 6 -3 12 8 7 21 -7 21 -4 0 -13 4 -21 9 -10 6 -12 5 -7 -2 4 -7 1 -13 -6
-13 -45 -5 -64 -3 -75 4 -7 5 -18 5 -24 1 -8 -5 -9 -3 -5 5 5 7 15 10 25 6 13
-5 14 -4 4 6 -15 15 -17 33 -3 24 6 -3 15 6 20 20 6 15 15 23 21 19 8 -4 8 0
0 15 -10 18 -9 20 6 14 13 -5 15 -3 10 11 -5 14 -3 17 8 12 12 -4 12 -1 -2 21
-10 15 -13 24 -6 20 8 -5 10 4 8 33 -2 23 1 38 6 34 5 -3 7 -10 4 -15 -4 -5 2
-6 11 -2 11 4 13 8 6 11 -7 2 -12 10 -12 18 0 8 -4 14 -9 14 -4 0 -7 10 -6 23
1 12 3 28 4 35 0 8 6 10 13 6 7 -4 1 8 -12 26 -13 18 -19 30 -13 27 7 -4 15
-2 19 4 4 8 3 9 -4 5 -7 -4 -12 -2 -12 4 0 6 -5 8 -12 4 -8 -5 -7 0 2 11 9 11
10 16 3 11 -12 -7 -18 5 -14 27 1 5 -8 11 -19 14 -11 3 -20 13 -20 22 0 14 2
14 10 1 5 -8 10 -10 10 -4 0 19 -12 24 -34 12 -17 -8 -19 -8 -9 2 9 10 7 19
-9 41 -21 27 -38 30 -38 6 0 -9 2 -9 8 -1 5 8 13 4 25 -12 10 -13 14 -24 9
-24 -6 0 -12 7 -16 15 -3 8 -11 14 -18 13 -8 -2 -13 7 -13 21 0 14 -6 26 -13
29 -7 2 -9 9 -6 14 5 7 2 8 -6 3 -10 -6 -9 -11 5 -22 11 -7 15 -13 9 -13 -15
1 -44 26 -37 33 3 4 1 8 -5 8 -7 1 -18 2 -24 3 -7 1 -12 10 -10 20 3 13 -1 17
-12 13 -16 -6 -30 4 -56 42 -10 15 -16 17 -22 8 -5 -7 -6 0 -4 16 4 24 3 27
-10 17 -11 -10 -14 -9 -14 3 0 8 6 18 13 21 6 3 2 3 -9 1 -18 -5 -21 -1 -21
21 0 14 -8 33 -18 42 -10 10 -15 11 -11 5 4 -7 2 -13 -4 -13 -7 0 -10 6 -7 14
3 7 0 19 -6 26 -10 10 -7 10 13 0 20 -10 23 -10 13 0 -6 7 -9 19 -6 28 4 8 2
13 -3 9 -5 -3 -10 3 -10 14 0 12 4 15 10 9 6 -6 15 -10 21 -10 5 0 4 4 -3 8
-17 11 -25 52 -8 46 7 -3 13 3 13 12 0 9 -8 19 -18 21 -18 5 -23 43 -6 43 5 0
6 8 3 18 -5 14 -4 14 9 -2 11 -14 15 -16 15 -5 0 12 2 12 10 -1 8 -12 10 -12
10 -1 0 24 -31 40 -52 27 -15 -9 -21 -8 -28 4 -5 8 -6 18 -3 24 4 5 -1 7 -11
3 -10 -4 -15 -3 -11 3 6 10 -4 13 -40 11 -17 -1 -17 0 3 9 15 6 20 14 16 22
-6 9 -9 9 -12 0 -5 -16 -29 -15 -35 1 -3 6 -4 2 -4 -10 1 -13 5 -23 10 -23 4
0 5 -4 2 -10 -3 -6 1 -7 9 -4 9 3 16 1 16 -5 0 -6 -6 -11 -12 -11 -7 0 -5 -5
5 -11 15 -9 16 -13 5 -27 -12 -15 -11 -16 5 -3 11 9 17 10 17 2 0 -6 11 -11
23 -11 35 0 40 -12 14 -34 -12 -12 -17 -17 -11 -13 9 6 12 2 10 -15 -1 -13 -5
-29 -9 -35 -4 -7 1 -17 10 -23 17 -11 17 -11 1 -6 -10 3 -18 1 -18 -4 0 -6 6
-10 13 -10 8 0 7 -4 -3 -10 -13 -8 -13 -10 0 -10 11 0 11 -3 2 -12 -15 -15
-15 -28 -1 -28 5 0 7 5 3 12 -5 7 -3 8 6 3 10 -6 9 -11 -5 -22 -14 -10 -15
-13 -4 -13 8 -1 3 -7 -11 -16 l-25 -15 25 5 c14 3 19 3 12 0 -6 -3 -10 -10 -7
-14 3 -5 -7 -7 -22 -4 -27 5 -27 5 -8 -10 20 -15 20 -15 -3 -11 -20 3 -21 2
-11 -17 8 -15 8 -19 0 -14 -6 4 -14 0 -17 -8 -3 -9 -10 -13 -15 -10 -5 3 -9 0
-9 -5 0 -6 -5 -11 -11 -11 -5 0 -7 6 -3 13 4 6 -7 -1 -24 -17 -18 -17 -32 -36
-32 -43 0 -7 -6 -13 -14 -13 -8 0 -16 -7 -20 -15 -3 -8 -13 -15 -21 -15 -9 0
-13 -4 -10 -10 3 -5 -2 -10 -12 -10 -15 0 -16 -2 -3 -10 9 -6 10 -10 3 -10 -6
0 -15 5 -18 10 -4 6 -11 8 -16 4 -6 -4 -6 -10 0 -18 14 -17 -22 -51 -44 -43
-8 4 -15 2 -15 -2 0 -5 6 -12 13 -14 7 -3 4 -6 -6 -6 -10 -1 -15 -6 -12 -11 3
-6 -1 -13 -9 -16 -9 -3 -16 -13 -16 -21 0 -8 5 -11 12 -7 7 4 8 3 4 -5 -6 -9
-11 -9 -21 -1 -10 8 -15 8 -21 -1 -4 -8 -3 -9 4 -5 7 4 12 1 12 -9 0 -10 -5
-13 -12 -9 -8 5 -7 0 2 -11 8 -10 10 -16 4 -12 -7 4 -14 0 -17 -7 -3 -8 -1
-17 6 -20 7 -2 3 -5 -8 -6 l-20 -1 20 -9 c11 -5 15 -9 9 -9 -6 -1 -9 -12 -6
-26 2 -14 -1 -31 -7 -39 -9 -11 -9 -16 0 -22 8 -5 10 -3 4 7 -5 8 -4 11 0 6
11 -10 14 -48 3 -41 -14 9 -9 -13 7 -26 8 -7 13 -16 10 -20 -3 -5 0 -11 5 -13
6 -3 5 -4 -2 -3 -7 2 -12 9 -11 15 2 6 -2 11 -7 11 -13 0 -13 -17 0 -25 6 -4
7 -11 4 -17 -5 -7 -1 -9 9 -5 17 6 31 -17 28 -47 -2 -10 2 -15 7 -12 6 3 13
-3 17 -14 3 -11 14 -20 23 -21 14 0 14 -2 2 -6 -8 -4 -21 -13 -28 -22 -12 -14
-13 -14 -7 3 6 19 5 19 -14 2 -13 -12 -21 -14 -26 -6 -5 8 -11 7 -23 -2 -13
-11 -14 -11 -7 2 8 13 7 13 -8 1 -16 -13 -22 -8 -17 14 1 6 -4 4 -11 -2 -10
-11 -9 -16 7 -28 19 -14 19 -14 -2 -11 -15 3 -20 -1 -19 -15 1 -10 5 -22 10
-26 4 -5 5 -3 1 4 -3 6 -2 14 3 17 5 4 8 -2 6 -11 -2 -10 -4 -22 -4 -28 -1 -5
-6 -3 -11 5 -8 12 -11 13 -19 1 -7 -11 -9 -11 -14 0 -4 10 -6 10 -6 2 -1 -7
-6 -13 -12 -13 -5 0 -7 6 -3 13 5 8 2 8 -9 -2 -11 -9 -17 -10 -17 -2 0 6 -10
11 -22 11 -21 0 -21 0 -2 16 10 8 14 13 8 10 -7 -3 -14 0 -17 8 -4 10 1 12 16
9 16 -4 18 -2 8 5 -7 5 -10 15 -6 22 6 9 9 9 16 -1 7 -11 9 -11 9 -1 0 7 5 10
12 6 7 -4 8 -3 4 4 -4 7 -1 12 6 12 8 0 6 5 -5 11 -9 6 -15 14 -12 19 3 5 1
12 -5 15 -8 5 -7 11 1 21 7 8 7 14 1 14 -5 0 -13 12 -16 26 -6 23 -9 24 -24
12 -15 -12 -16 -11 -3 4 7 10 17 15 22 12 5 -3 9 0 9 6 0 7 7 9 16 6 8 -3 12
-2 9 3 -3 5 0 13 6 16 5 4 8 13 5 21 -4 10 0 14 12 12 10 -2 16 3 14 11 -1 7
3 20 10 29 8 9 8 13 2 9 -7 -4 -14 0 -18 8 -3 8 -1 15 5 15 6 0 7 6 0 17 -7
12 -5 21 7 30 10 7 13 13 7 12 -25 -3 -34 3 -30 21 2 12 -2 20 -9 20 -20 0
-40 27 -26 35 5 3 10 12 10 18 0 9 -2 9 -8 0 -8 -13 -37 -12 -49 2 -4 4 -2 5
5 1 7 -4 12 -1 12 8 0 8 -7 13 -17 11 -28 -4 -43 14 -38 44 5 24 5 25 -4 4 -6
-13 -13 -23 -16 -23 -4 0 -4 4 0 9 5 10 -4 20 -39 45 -15 10 -16 15 -6 21 8 5
11 4 7 -2 -7 -11 22 -28 31 -18 3 3 -1 5 -8 5 -7 0 -10 3 -7 7 4 3 -1 12 -11
20 -11 8 -12 12 -3 11 7 -2 15 4 16 12 2 8 5 22 7 30 3 8 3 12 1 8 -3 -5 -11
-8 -19 -8 -8 0 -14 -5 -14 -11 0 -5 4 -8 8 -5 5 3 9 -2 9 -10 0 -13 -2 -13
-14 -1 -15 15 -7 51 10 40 6 -3 7 -1 3 5 -4 6 -13 9 -21 6 -8 -4 -12 -11 -8
-17 4 -7 0 -8 -12 -3 -18 6 -18 6 -3 -11 20 -23 27 -59 11 -56 -7 2 -10 -3 -8
-10 8 -21 -22 -50 -45 -44 -17 4 -19 3 -10 -8 13 -16 -12 -29 -28 -13 -6 6 -8
0 -5 -19 5 -27 5 -27 -10 -8 -17 22 -19 2 -3 -24 7 -11 5 -13 -7 -8 -10 3 -17
3 -17 -2 0 -4 -11 -20 -25 -35 -13 -14 -19 -26 -12 -26 8 0 8 -3 -1 -9 -8 -4
-13 -11 -13 -15 1 -3 1 -7 0 -8 0 -2 -2 -12 -4 -22 -2 -11 -11 -23 -20 -28
-16 -9 -12 -28 6 -28 6 0 7 4 4 10 -4 6 1 7 11 3 10 -4 13 -8 7 -10 -7 -3 -9
-11 -6 -19 3 -7 9 -12 13 -9 10 6 8 -15 -3 -31 -11 -18 19 -37 45 -29 23 7 23
7 3 -9 -20 -17 -19 -17 5 -10 24 6 24 5 6 -9 -13 -9 -17 -20 -12 -32 5 -15 4
-16 -8 -6 -11 9 -16 9 -22 0 -5 -8 -3 -9 6 -4 10 6 12 4 7 -8 -3 -9 -2 -19 4
-22 15 -10 1 -24 -20 -20 -10 2 -18 -3 -18 -10 0 -8 4 -12 8 -9 4 2 13 -6 20
-18 10 -20 10 -22 -2 -13 -8 6 -7 3 3 -6 9 -9 14 -20 10 -24 -4 -5 -2 -5 5 -1
7 4 10 14 7 24 -5 15 -4 15 6 -1 9 -14 9 -22 -2 -34 -9 -12 -9 -15 0 -9 15 9
16 -6 1 -21 -8 -8 -7 -13 2 -18 8 -5 10 -4 5 3 -4 7 -2 12 4 12 7 0 9 -7 6
-16 -3 -9 -6 -18 -6 -21 0 -3 -8 1 -17 8 -16 13 -16 13 0 -10 12 -18 13 -29 6
-43 -5 -10 -15 -15 -21 -12 -7 5 -5 11 6 19 15 11 15 13 1 19 -9 3 -13 2 -10
-4 3 -6 1 -10 -4 -10 -6 0 -11 -6 -11 -13 0 -7 -11 -13 -24 -13 -14 0 -24 5
-23 11 1 5 -7 8 -18 7 -18 -4 -18 -2 4 17 13 12 20 21 15 21 -6 0 -15 -5 -21
-11 -8 -8 -13 -7 -18 2 -6 8 -4 10 5 4 10 -6 12 -4 7 8 -4 11 2 22 16 32 25
18 15 20 -16 3 -19 -10 -20 -9 -10 4 7 8 10 18 6 21 -3 4 0 15 9 24 8 10 14
23 13 28 -1 18 -16 35 -26 30 -5 -3 -6 1 -3 9 3 9 10 16 16 16 5 0 6 -4 3 -10
-10 -16 1 -12 15 6 11 12 11 15 -1 12 -9 -2 -13 4 -11 16 2 10 -1 16 -5 13 -5
-3 -15 3 -22 15 -10 16 -10 19 1 12 18 -12 39 -14 33 -4 -3 5 1 11 7 14 7 3 2
3 -12 0 l-25 -7 20 23 20 23 -25 -13 -25 -13 20 23 c11 13 15 21 10 17 -6 -3
-17 -1 -25 5 -12 8 -12 9 2 4 11 -3 22 2 28 14 9 17 15 18 33 10 20 -10 20
-10 5 3 -10 8 -14 18 -10 22 4 5 2 5 -5 1 -7 -4 -17 2 -23 15 -10 17 -8 23 9
36 12 8 19 19 16 24 -9 13 -26 11 -22 -2 3 -18 -20 -21 -27 -4 -3 9 -2 13 3
10 5 -3 12 -1 16 5 3 5 0 10 -7 10 -8 0 -6 5 5 11 9 5 17 15 17 21 0 7 -4 7
-13 -1 -10 -8 -14 -7 -14 3 0 10 9 13 26 10 l26 -5 -22 16 c-21 14 -22 52 -2
39 5 -3 9 0 9 5 0 6 -3 11 -8 11 -14 0 -31 55 -28 92 2 24 -1 35 -9 32 -6 -3
-12 2 -12 10 0 8 6 12 12 9 16 -6 11 47 -5 57 -9 6 -9 9 1 13 12 4 11 7 -1 16
-8 6 -10 11 -4 11 5 0 15 -5 20 -10 7 -7 11 -6 11 4 0 8 -4 13 -8 10 -8 -5
-22 14 -25 34 -1 6 2 10 7 6 5 -3 7 -10 4 -15 -4 -5 -2 -9 3 -9 5 0 8 27 6 61
-2 52 -1 59 12 48 8 -6 17 -9 21 -5 3 3 1 6 -6 6 -16 0 -9 33 9 42 12 5 12 7
-2 7 -20 1 -25 21 -6 21 6 0 4 6 -7 13 -12 10 -14 16 -7 21 7 4 12 2 12 -5 0
-7 3 -10 6 -6 3 3 3 11 -1 17 -5 8 -12 6 -25 -5 -14 -12 -20 -13 -26 -4 -4 8
-3 10 4 5 7 -4 12 -3 12 3 0 5 -9 13 -20 16 -11 4 -18 11 -14 16 3 5 10 23 14
40 8 26 7 29 -5 19 -10 -8 -15 -9 -15 -2 0 6 10 18 23 27 19 14 19 16 3 13
-11 -2 -21 5 -27 19 -6 17 -5 21 6 16 8 -3 12 -10 8 -16 -3 -6 -1 -7 5 -3 6 4
8 14 5 23 -5 12 -3 14 7 8 9 -6 11 -4 6 4 -5 7 -18 16 -30 21 -20 8 -20 9 4
10 20 0 22 2 10 10 -12 8 -12 10 5 10 12 0 16 3 9 8 -6 4 -14 26 -17 50 -5 39
-4 42 11 30 12 -9 11 -6 -2 10 -19 22 -19 23 -1 36 12 9 15 15 7 20 -7 4 -12
12 -12 17 0 6 4 8 9 4 5 -3 13 0 17 6 4 8 3 9 -4 5 -7 -4 -12 -2 -12 4 0 6 -5
8 -12 4 -7 -4 -8 -3 -4 5 4 6 12 9 17 6 5 -4 9 -1 9 4 0 6 -6 11 -12 11 -9 0
-8 4 2 10 13 9 13 11 0 20 -8 5 -10 10 -5 10 6 0 11 10 12 22 1 11 7 24 14 29
8 4 5 9 -10 14 -11 3 -21 11 -21 16 0 6 6 7 13 3 8 -5 8 -2 -2 9 -7 9 -22 17
-33 17 -15 0 -19 5 -15 20 3 11 1 18 -3 15 -5 -3 -11 -1 -15 5 -8 13 -18 13
-39 -3z m78 -292 c3 -10 -1 -18 -11 -22 -15 -6 -14 -7 3 -14 15 -6 14 -7 -8
-6 -15 1 -25 4 -22 8 2 4 0 10 -5 14 -5 3 -14 -2 -19 -11 -7 -12 -14 -14 -26
-7 -15 8 -13 12 16 26 21 10 37 12 43 6 15 -15 29 -10 15 6 -7 9 -8 15 -2 15
5 0 13 -7 16 -15z m-99 -75 c3 -6 -1 -7 -9 -4 -18 7 -21 14 -7 14 6 0 13 -4
16 -10z m1041 -137 c-3 -4 -6 -1 -6 6 0 7 -4 9 -10 6 -6 -4 -7 1 -3 11 6 15 7
15 15 -1 6 -9 7 -19 4 -22z m-946 -17 c0 -3 -4 -8 -10 -11 -5 -3 -10 -1 -10 4
0 6 5 11 10 11 6 0 10 -2 10 -4z m7 -52 c-3 -3 -12 -4 -19 -1 -8 3 -5 6 6 6
11 1 17 -2 13 -5z m1020 -20 c-3 -3 -12 -4 -19 -1 -8 3 -5 6 6 6 11 1 17 -2
13 -5z m-1177 -129 c-7 -9 -15 -13 -19 -10 -3 3 1 10 9 15 21 14 24 12 10 -5z
m1183 -55 c3 -11 1 -20 -4 -20 -5 0 -9 9 -9 20 0 11 2 20 4 20 2 0 6 -9 9 -20z
m-995 -35 c-3 -3 -9 2 -12 12 -6 14 -5 15 5 6 7 -7 10 -15 7 -18z m842 -92 c0
-3 -6 -3 -12 0 -7 2 -21 -5 -30 -16 -10 -11 -18 -16 -18 -12 0 17 32 44 46 38
8 -3 14 -7 14 -10z m-835 -183 c3 -5 1 -10 -4 -10 -6 0 -11 5 -11 10 0 6 2 10
4 10 3 0 8 -4 11 -10z m-195 -60 c0 -5 -8 -10 -17 -10 -15 0 -16 2 -3 10 19
12 20 12 20 0z m1871 -77 c13 -16 12 -17 -3 -4 -10 7 -18 15 -18 17 0 8 8 3
21 -13z m-1671 -99 c0 -10 5 -12 13 -8 8 5 8 3 -2 -9 -17 -22 -31 -13 -23 15
4 16 2 19 -8 13 -9 -5 -11 -4 -6 4 9 14 26 5 26 -15z m415 -55 c-4 -5 -12 -9
-18 -8 -9 0 -8 2 1 6 6 2 9 10 6 15 -4 7 -2 8 5 4 6 -4 9 -12 6 -17z m-305
-111 c0 -10 3 -9 9 1 7 11 9 11 14 0 5 -12 7 -12 15 -1 7 11 10 11 15 -2 9
-22 28 -20 21 2 -4 12 -3 13 3 4 6 -7 18 -10 29 -6 14 4 15 3 5 -4 -11 -8 -11
-10 0 -15 8 -3 -3 -5 -23 -3 -23 2 -38 -1 -39 -8 0 -7 -3 -6 -6 2 -2 6 -9 10
-14 6 -5 -3 -9 0 -9 6 0 6 -5 8 -10 5 -8 -5 -7 -12 2 -23 11 -15 11 -15 -4 -4
-13 10 -17 10 -21 0 -4 -9 -6 -9 -6 -1 -1 6 4 15 9 18 8 5 7 11 -1 21 -8 10
-8 14 0 14 6 0 11 -6 11 -12z m170 4 c0 8 3 9 8 3 11 -16 46 -19 36 -3 -6 10
-4 10 9 -1 14 -11 17 -11 18 0 0 10 2 11 6 2 2 -7 11 -13 18 -13 21 0 24 -14
7 -30 -14 -13 -15 -12 -9 2 5 14 0 16 -31 13 -20 -2 -43 2 -51 8 -12 10 -14 8
-8 -8 7 -19 6 -19 -7 -2 -13 17 -32 25 -22 9 2 -4 1 -14 -4 -21 -5 -9 -7 -3
-7 17 2 26 4 29 19 21 13 -7 18 -6 18 3z m1359 -46 c8 -10 9 -16 1 -21 -6 -4
-9 -1 -8 7 2 7 -3 12 -10 10 -8 -1 -11 2 -7 8 8 13 10 13 24 -4z m-1632 -31
c0 -8 -6 -16 -13 -19 -7 -3 -10 2 -7 15 6 22 20 26 20 4z m138 -34 c3 -5 2
-12 -3 -15 -5 -3 -9 1 -9 9 0 17 3 19 12 6z m1460 -51 c3 -6 -1 -7 -9 -4 -18
7 -21 14 -7 14 6 0 13 -4 16 -10z m-60 -71 c11 -16 1 -19 -13 -3 -7 8 -8 14
-3 14 5 0 13 -5 16 -11z m-1975 -209 c0 -5 -2 -10 -4 -10 -3 0 -8 5 -11 10 -3
6 -1 10 4 10 6 0 11 -4 11 -10z m272 -8 c9 -9 9 -12 0 -12 -7 0 -12 5 -12 11
0 5 -4 8 -9 4 -5 -3 -12 -1 -15 4 -8 13 22 7 36 -7z m38 12 c0 -8 -19 -13 -24
-6 -3 5 1 9 9 9 8 0 15 -2 15 -3z m818 -209 c-3 -3 -9 2 -12 12 -6 14 -5 15 5
6 7 -7 10 -15 7 -18z m312 -59 c0 -3 -4 -8 -10 -11 -5 -3 -10 -1 -10 4 0 6 5
11 10 11 6 0 10 -2 10 -4z"/>
<path d="M1650 6499 c0 -5 5 -7 10 -4 6 3 10 8 10 11 0 2 -4 4 -10 4 -5 0 -10
-5 -10 -11z"/>
<path d="M1856 6482 c-2 -4 -1 -14 3 -21 6 -10 10 -9 14 3 6 16 -8 32 -17 18z"/>
<path d="M2793 6275 c0 -8 4 -12 9 -9 4 3 8 9 8 15 0 5 -4 9 -8 9 -5 0 -9 -7
-9 -15z"/>
<path d="M2760 6255 c14 -17 13 -17 -9 -10 -17 5 -22 4 -19 -6 3 -8 14 -13 24
-12 11 2 5 -5 -13 -14 -18 -9 -33 -21 -33 -26 0 -5 6 -4 13 2 8 6 17 8 21 4 3
-4 17 -8 29 -10 17 -2 19 -1 7 6 -8 5 -18 7 -24 4 -5 -3 -6 -1 -2 5 4 6 14 9
24 6 10 -4 13 -2 7 3 -17 14 -17 36 0 30 23 -10 18 -1 -12 19 -27 17 -27 17
-13 -1z"/>
<path d="M1670 6220 c-9 -6 -10 -10 -3 -10 6 0 15 5 18 10 8 12 4 12 -15 0z"/>
<path d="M2710 6220 c0 -5 5 -10 11 -10 5 0 7 5 4 10 -3 6 -8 10 -11 10 -2 0
-4 -4 -4 -10z"/>
<path d="M2848 6213 c-10 -2 -18 -8 -18 -13 0 -5 8 -7 18 -4 13 5 14 4 3 -4
-8 -6 -23 -9 -34 -7 -15 3 -16 1 -8 -9 7 -8 10 -19 9 -26 -2 -7 5 -14 15 -15
15 -3 16 -1 6 11 -6 8 -9 17 -5 21 3 3 6 2 6 -4 0 -6 6 -13 14 -16 10 -4 12 0
8 16 -5 20 -4 21 13 7 18 -14 18 -14 2 11 -10 14 -14 29 -10 32 3 4 4 6 2 6
-2 -1 -12 -3 -21 -6z"/>
<path d="M2753 6163 c9 -8 47 -11 47 -4 0 5 -11 9 -25 9 -14 0 -24 -2 -22 -5z"/>
<path d="M1830 5999 c0 -5 5 -7 10 -4 6 3 10 8 10 11 0 2 -4 4 -10 4 -5 0 -10
-5 -10 -11z"/>
<path d="M1633 5965 c0 -8 4 -15 9 -15 4 0 8 4 8 9 0 6 -4 12 -8 15 -5 3 -9
-1 -9 -9z"/>
<path d="M2941 5724 c-1 -6 5 -17 12 -23 10 -8 14 -7 14 4 0 8 -4 12 -8 9 -4
-2 -10 2 -12 8 -4 8 -6 9 -6 2z"/>
<path d="M7180 5680 c0 -27 5 -43 15 -46 8 -4 12 -10 9 -15 -3 -5 2 -10 10
-10 9 -1 24 -2 33 -3 14 -1 18 8 21 42 2 31 -1 42 -12 42 -7 0 -16 7 -20 15
-3 8 -17 15 -31 15 -23 0 -25 -4 -25 -40z"/>
<path d="M4120 5670 c-1 -14 -1 -139 -2 -279 0 -225 1 -255 16 -263 9 -5 14
-13 11 -19 -4 -5 9 -9 28 -9 l35 0 -1 103 -1 102 119 5 c105 4 124 8 153 28
93 67 98 208 11 291 -63 60 -81 65 -231 66 l-138 1 0 -26z m306 -68 c52 -28
47 -141 -8 -187 -27 -23 -38 -25 -119 -25 -64 0 -89 4 -90 13 -3 40 -4 184 -1
198 3 13 20 15 100 14 53 -1 107 -7 118 -13z"/>
<path d="M6646 5690 c-6 -12 0 -35 9 -37 5 -1 12 -10 16 -20 5 -15 18 -18 90
-18 l84 0 0 -243 c0 -175 3 -242 11 -242 7 0 15 -7 18 -16 4 -10 15 -14 33
-12 l28 3 0 253 c0 162 3 252 10 253 5 1 50 2 99 3 81 1 89 3 92 21 2 11 -7
29 -19 40 -20 18 -35 20 -245 20 -123 0 -225 -2 -226 -5z"/>
<path d="M2996 5673 c-6 -14 -5 -15 5 -6 7 7 10 15 7 18 -3 3 -9 -2 -12 -12z"/>
<path d="M2053 5573 c0 -9 4 -10 14 -2 7 6 13 12 13 14 0 1 -6 2 -13 2 -8 0
-14 -6 -14 -14z"/>
<path d="M1875 5571 c-3 -5 -2 -12 3 -15 5 -3 9 1 9 9 0 17 -3 19 -12 6z"/>
<path d="M2490 5569 c0 -5 -4 -7 -10 -4 -5 3 -10 1 -10 -4 0 -16 16 -13 30 4
9 10 9 15 1 15 -6 0 -11 -5 -11 -11z"/>
<path d="M4995 5550 c-42 -6 -125 -39 -125 -50 0 -3 12 -21 27 -38 23 -28 28
-30 42 -19 28 24 103 48 130 42 45 -10 61 -30 67 -79 l6 -47 -48 7 c-80 11
-128 7 -177 -14 -85 -38 -100 -124 -34 -199 60 -68 148 -82 231 -38 46 25 47
25 63 5 10 -11 30 -20 46 -20 24 0 28 4 25 23 -2 12 -6 24 -10 28 -5 3 -9 63
-10 135 -3 114 -6 133 -26 165 -46 74 -123 111 -207 99z m136 -255 c17 -11 9
-55 -13 -80 -44 -47 -137 -65 -174 -35 -17 15 -18 60 -1 83 25 35 148 56 188
32z"/>
<path d="M5868 5545 c-139 -35 -201 -176 -137 -312 23 -48 86 -109 135 -129
44 -18 116 -18 162 2 64 26 119 94 77 94 -8 0 -15 6 -15 14 0 26 -43 23 -67
-5 -23 -26 -81 -50 -111 -44 -9 2 -24 4 -33 4 -28 2 -76 59 -75 89 l1 26 173
0 c117 -1 172 3 173 10 3 29 -4 82 -11 91 -5 6 -9 15 -9 20 -1 18 -82 105
-114 122 -48 25 -99 31 -149 18z m121 -76 c39 -12 64 -39 75 -81 l6 -28 -135
0 c-74 0 -135 3 -135 8 0 7 48 82 53 82 1 0 20 7 42 15 49 17 49 17 94 4z"/>
<path d="M7527 5550 c-21 -4 -51 -17 -68 -29 -16 -12 -29 -17 -29 -11 0 5 -6
10 -14 10 -8 0 -16 6 -19 14 -3 8 -15 14 -26 13 -20 -1 -21 -8 -22 -97 -1
-321 -2 -313 15 -322 9 -5 14 -13 11 -17 -6 -10 40 -21 52 -12 5 3 8 64 8 135
0 117 2 132 23 167 27 46 67 69 117 69 49 0 55 -21 55 -191 0 -153 9 -179 61
-179 l26 0 1 134 c0 112 4 139 19 163 35 55 64 73 117 73 52 0 58 -20 60 -189
1 -160 8 -181 61 -181 l26 0 -2 158 c-1 178 -9 209 -67 259 -39 34 -45 36
-101 33 -49 -3 -73 -14 -109 -50 -18 -17 -32 -28 -32 -23 0 13 -69 64 -98 72
-15 4 -44 4 -65 1z"/>
<path d="M8658 5549 c-79 -12 -119 -52 -120 -120 -1 -69 60 -116 184 -143 16
-4 29 -6 30 -4 2 1 13 -4 26 -11 17 -9 22 -20 20 -38 -8 -67 -116 -88 -207
-41 -42 22 -52 24 -61 13 -17 -20 15 -60 70 -87 109 -54 250 -25 278 57 29 89
-29 151 -177 188 -76 19 -86 27 -77 61 15 59 108 78 186 37 34 -18 45 -20 51
-9 12 19 11 22 -13 45 -49 44 -117 63 -190 52z"/>
<path d="M4612 5542 c-7 -5 -13 -17 -13 -28 0 -344 2 -393 17 -387 9 3 14 0
12 -8 -2 -9 8 -15 30 -17 l32 -3 0 136 c0 123 2 140 21 166 22 32 71 61 104
63 25 1 36 56 11 56 -9 0 -16 7 -16 16 0 20 -53 12 -89 -13 -22 -16 -30 -17
-49 -7 -13 6 -23 15 -22 20 2 12 -22 16 -38 6z"/>
<path d="M5264 5544 c-7 -3 12 -59 53 -152 83 -192 92 -213 105 -239 8 -16 6
-34 -8 -73 -19 -54 -41 -80 -71 -84 -23 -3 -31 -46 -9 -46 9 0 16 -7 16 -15 0
-11 11 -15 40 -15 51 0 69 20 110 123 17 45 38 96 45 112 7 17 43 104 79 195
58 149 63 165 46 168 -11 2 -17 9 -14 16 7 18 -46 14 -56 -4 -4 -8 -34 -82
-65 -165 -31 -82 -58 -152 -61 -154 -3 -3 -22 36 -29 59 -1 3 -9 23 -19 45 -9
22 -31 72 -47 112 -40 96 -76 132 -115 117z"/>
<path d="M6205 5541 c-3 -3 -5 -98 -5 -212 1 -179 3 -207 16 -202 9 3 14 0 12
-8 -2 -9 8 -15 29 -17 l32 -3 3 144 3 145 32 30 c17 17 50 36 72 42 34 9 41
15 41 35 0 16 -6 25 -15 25 -8 0 -15 7 -15 15 0 20 -55 11 -92 -15 -26 -19
-26 -19 -51 4 -23 21 -51 29 -62 17z"/>
<path d="M7186 5543 c-3 -3 -6 -96 -6 -205 0 -182 2 -200 19 -217 11 -11 30
-21 43 -23 l23 -3 1 208 c2 195 1 209 -17 218 -11 5 -18 12 -16 16 3 8 -39 14
-47 6z"/>
<path d="M8175 5531 c-132 -60 -161 -232 -59 -349 54 -61 113 -92 179 -92 57
0 126 30 155 67 25 32 25 43 0 43 -13 0 -18 5 -14 15 5 11 -1 15 -24 15 -18 0
-32 -6 -36 -15 -9 -24 -84 -54 -124 -49 -50 6 -69 20 -92 64 -19 37 -19 40 -3
48 10 4 91 8 181 7 l162 0 0 30 c0 79 -47 155 -129 206 -55 35 -133 39 -196
10z m195 -80 c14 -10 30 -33 36 -52 l12 -34 -131 -3 c-71 -1 -132 -1 -134 2
-3 2 3 18 11 34 17 32 58 66 91 75 32 8 88 -2 115 -22z"/>
<path d="M2191 5531 c-8 -5 -9 -11 -3 -15 5 -3 12 1 16 9 6 17 6 18 -13 6z"/>
<path d="M1919 5473 c8 -16 8 -22 -1 -25 -8 -3 -9 -6 -1 -11 18 -11 23 19 7
40 -14 17 -14 17 -5 -4z"/>
<path d="M3522 5477 c-8 -10 -6 -13 11 -14 12 0 16 1 9 4 -6 3 -10 9 -6 14 8
14 -2 11 -14 -4z"/>
<path d="M1882 5395 c-7 -9 -8 -15 -2 -15 5 0 13 0 17 0 4 0 8 6 9 15 3 19 -7
19 -24 0z"/>
<path d="M3220 5341 c0 -6 5 -11 11 -11 5 0 7 -4 4 -10 -3 -6 1 -7 10 -4 9 4
15 7 13 8 -2 1 -11 8 -20 15 -12 9 -18 10 -18 2z"/>
<path d="M2350 5336 c0 -2 8 -10 18 -17 15 -13 16 -12 3 4 -13 16 -21 21 -21
13z"/>
<path d="M3231 5246 c-9 -11 -9 -16 1 -22 7 -4 10 -4 6 1 -4 4 -3 14 3 22 6 7
9 13 6 13 -2 0 -10 -6 -16 -14z"/>
<path d="M2257 5165 c3 -8 9 -12 14 -9 12 7 11 11 -5 17 -10 4 -13 1 -9 -8z"/>
<path d="M2410 5140 c0 -5 5 -10 11 -10 5 0 7 5 4 10 -3 6 -8 10 -11 10 -2 0
-4 -4 -4 -10z"/>
<path d="M3666 5122 c-3 -5 1 -9 9 -9 8 0 12 4 9 9 -3 4 -7 8 -9 8 -2 0 -6 -4
-9 -8z"/>
<path d="M2430 5079 c0 -5 5 -7 10 -4 6 3 10 8 10 11 0 2 -4 4 -10 4 -5 0 -10
-5 -10 -11z"/>
<path d="M3655 5060 c3 -5 8 -10 11 -10 2 0 4 5 4 10 0 6 -5 10 -11 10 -5 0
-7 -4 -4 -10z"/>
<path d="M3284 5022 c-9 -5 -8 -10 1 -19 11 -10 13 -9 12 7 -1 11 -1 20 -2 20
0 0 -5 -4 -11 -8z"/>
<path d="M1889 4898 c14 -19 32 -15 30 5 0 8 -2 8 -6 -1 -4 -10 -8 -10 -21 0
-15 12 -16 11 -3 -4z"/>
<path d="M3690 4889 c0 -5 5 -7 10 -4 6 3 10 8 10 11 0 2 -4 4 -10 4 -5 0 -10
-5 -10 -11z"/>
<path d="M1416 4775 c-9 -26 -7 -32 5 -12 6 10 9 21 6 23 -2 3 -7 -2 -11 -11z"/>
<path d="M3910 4691 c-11 -21 3 -40 15 -21 4 6 11 7 17 4 7 -4 8 -2 4 5 -4 6
-12 8 -18 5 -7 -5 -9 -1 -5 9 9 23 0 21 -13 -2z"/>
<path d="M1521 4671 c-8 -5 -9 -11 -3 -15 5 -3 12 1 16 9 6 17 6 18 -13 6z"/>
<path d="M3905 4640 c3 -5 8 -10 11 -10 2 0 4 5 4 10 0 6 -5 10 -11 10 -5 0
-7 -4 -4 -10z"/>
<path d="M1950 4620 c0 -5 5 -10 11 -10 5 0 7 5 4 10 -3 6 -8 10 -11 10 -2 0
-4 -4 -4 -10z"/>
<path d="M1435 4570 c3 -5 8 -10 11 -10 2 0 4 5 4 10 0 6 -5 10 -11 10 -5 0
-7 -4 -4 -10z"/>
<path d="M1358 4550 c-16 -9 -25 -21 -20 -26 4 -5 -2 -2 -13 7 -21 18 -55 21
-55 7 0 -5 9 -6 20 -3 11 3 20 2 20 -3 0 -11 -60 -9 -78 2 -6 3 -13 2 -17 -4
-4 -6 -11 -7 -17 -4 -7 4 -8 2 -4 -4 4 -7 1 -12 -9 -12 -9 0 -14 4 -11 8 3 5
-1 9 -9 9 -8 0 -12 -4 -9 -8 2 -4 -4 -13 -15 -18 -11 -6 -21 -8 -24 -3 -2 4
-2 2 -1 -5 2 -7 -1 -15 -6 -18 -6 -4 -10 0 -10 7 0 9 -3 9 -10 -2 -9 -13 -10
-13 -10 0 0 12 -2 12 -9 2 -4 -7 -12 -12 -17 -11 -19 3 -34 -1 -34 -12 0 -5 4
-8 9 -4 5 3 16 -2 24 -10 12 -11 17 -12 20 -2 4 9 8 8 17 -3 9 -12 10 -10 4
10 l-7 25 23 -20 c13 -11 20 -14 16 -8 -5 9 1 12 23 9 26 -3 29 -1 21 15 -7
12 -7 20 0 24 10 6 14 -2 10 -20 -1 -5 2 -7 6 -3 4 4 14 2 22 -5 13 -10 14 -9
3 10 -10 19 -9 22 4 17 8 -4 15 -9 15 -13 0 -4 9 -7 21 -8 15 -1 19 2 15 15
-5 13 -3 13 9 -2 8 -11 15 -14 15 -8 0 7 5 12 11 12 5 0 7 -6 3 -12 -6 -10 -4
-10 8 0 13 10 17 10 21 0 4 -10 6 -10 6 0 1 6 6 12 12 12 5 0 7 -6 3 -12 -6
-10 -4 -10 7 0 7 6 17 12 22 12 4 0 5 -6 1 -12 -5 -9 -2 -9 9 1 14 11 17 11
18 0 0 -8 4 -5 9 6 7 17 9 17 9 3 1 -21 17 -24 24 -5 4 10 6 10 6 0 1 -7 6
-13 12 -13 5 0 8 4 5 8 -2 4 4 9 16 9 14 1 18 -3 14 -15 -5 -13 -3 -13 9 2 11
14 15 16 15 5 0 -12 2 -12 10 1 8 13 10 12 10 -3 0 -10 4 -16 9 -13 5 4 12 0
15 -6 3 -7 3 -2 0 12 -5 24 -4 24 10 6 9 -10 13 -23 9 -29 -3 -6 -1 -7 5 -3 6
4 9 14 6 24 -5 16 -5 16 9 0 20 -25 30 -22 17 5 -11 22 -11 22 9 -2 12 -12 18
-28 14 -34 -3 -6 -1 -7 5 -3 7 4 10 17 8 29 -1 12 -1 16 1 9 3 -7 9 -9 15 -6
6 4 8 3 5 -2 -3 -6 3 -16 15 -23 11 -7 17 -8 13 -2 -3 6 -1 11 4 11 6 0 11 -5
11 -11 0 -5 5 -7 10 -4 6 4 8 10 6 14 -3 3 4 7 14 7 18 0 18 -1 2 -20 -16 -20
-16 -20 1 -7 9 7 17 10 17 6 0 -4 8 -1 17 6 15 12 16 12 9 -5 -7 -20 -6 -20
14 -1 16 15 19 15 15 3 -5 -12 -1 -14 18 -11 28 5 71 -13 62 -27 -3 -5 -1 -12
5 -15 6 -4 10 -3 9 2 -3 18 2 33 11 33 5 0 7 -6 4 -13 -3 -8 2 -14 11 -14 8 0
15 5 15 11 0 7 3 7 8 1 4 -5 18 -16 31 -23 20 -12 23 -12 18 0 -6 16 27 18 40
3 5 -4 3 -5 -4 -1 -6 3 -14 2 -18 -4 -4 -6 6 -10 25 -10 17 0 29 -4 25 -9 -3
-5 -1 -12 4 -15 5 -4 13 -1 17 5 5 8 3 9 -6 4 -9 -5 -11 -4 -6 4 5 8 13 7 29
-4 23 -16 41 -20 33 -7 -3 5 1 9 8 9 9 0 12 -7 8 -16 -5 -14 -3 -14 11 -2 20
16 22 9 6 -22 -8 -17 -5 -16 14 6 l25 28 10 -28 c7 -19 11 -22 11 -10 1 10 6
15 11 12 6 -4 8 -11 5 -16 -4 -5 3 -5 17 0 26 9 81 -6 72 -20 -3 -5 3 -6 12
-2 11 4 15 2 11 -4 -4 -6 6 -10 24 -11 20 0 27 3 22 11 -3 7 4 3 16 -7 22 -20
55 -31 46 -16 -3 4 4 6 15 3 11 -3 20 -9 20 -14 0 -5 5 -9 11 -9 5 0 7 5 3 12
-4 7 -3 8 5 4 6 -4 9 -11 6 -16 -3 -4 2 -10 10 -13 10 -4 12 -1 9 11 -5 14 -2
13 10 -3 14 -17 19 -18 37 -7 12 8 24 11 27 8 3 -3 0 -6 -6 -6 -7 0 -12 -4
-12 -8 0 -4 9 -8 19 -8 11 0 18 3 16 6 -2 3 7 6 21 6 13 0 24 -4 24 -8 0 -4 5
-8 11 -8 5 0 7 4 4 10 -3 6 1 7 9 4 19 -7 21 -20 4 -30 -6 -4 -8 -3 -5 2 3 5
-3 10 -14 10 -24 0 -25 -12 -1 -18 17 -5 393 -2 424 3 10 1 15 9 13 21 -2 10
0 18 4 18 17 0 7 27 -14 36 -18 9 -21 7 -21 -13 0 -13 4 -23 9 -23 5 0 6 7 3
16 -3 8 -2 12 3 9 16 -9 8 -42 -14 -55 -18 -12 -19 -11 -7 3 9 10 10 17 2 22
-6 3 -7 11 -4 17 5 8 1 9 -11 4 -15 -5 -16 -4 -5 9 16 20 6 19 -28 -2 -26 -17
-26 -17 -13 0 15 19 1 23 -18 5 -7 -7 -11 -8 -9 -3 2 6 -1 11 -7 12 -5 1 -9
-6 -8 -15 1 -10 0 -11 -3 -4 -3 6 -11 9 -17 5 -7 -4 -8 0 -4 13 7 18 7 18 -8
0 -13 -17 -15 -17 -15 -4 0 14 -5 15 -29 8 -24 -7 -31 -5 -34 8 -4 14 -5 14
-6 -2 -1 -17 -3 -17 -23 -4 -28 18 -58 29 -58 22 0 -2 10 -9 23 -14 21 -8 20
-9 -5 -7 -16 1 -28 6 -28 12 0 6 -9 16 -21 23 -12 8 -18 9 -14 3 3 -6 1 -11
-5 -11 -6 0 -8 -5 -4 -12 4 -7 3 -8 -5 -4 -6 4 -9 12 -6 17 4 5 -7 9 -24 9
-18 0 -35 7 -41 18 -8 12 -10 13 -7 2 3 -11 -2 -16 -18 -16 -13 0 -21 4 -19 8
3 5 9 6 13 4 4 -3 8 1 8 9 0 11 -4 12 -13 4 -9 -7 -17 -4 -28 13 -9 12 -16 18
-16 12 0 -5 -13 -11 -30 -12 -16 -1 -30 3 -30 8 0 6 -5 8 -10 5 -6 -4 -8 -11
-5 -16 3 -5 -1 -6 -10 -2 -13 5 -14 7 -3 14 10 7 9 9 -4 9 -10 0 -18 -5 -18
-10 0 -6 -6 -5 -14 2 -8 7 -11 18 -8 23 2 6 -1 5 -8 -2 -13 -12 -60 2 -60 19
0 4 -5 8 -11 8 -5 0 -8 -4 -5 -8 3 -5 -1 -9 -9 -9 -8 0 -12 4 -9 9 4 5 0 8 -7
6 -17 -3 -79 21 -79 32 0 8 -32 9 -45 1 -25 -15 -99 5 -91 25 3 7 0 16 -6 20
-6 4 -9 3 -5 -2 3 -5 -5 -14 -19 -21 -21 -10 -23 -9 -15 6 7 13 5 17 -10 18
-12 1 -17 -2 -13 -9 4 -6 -3 -4 -17 5 -30 21 -50 22 -23 2 17 -15 16 -15 -12
-1 -28 13 -32 13 -47 -2 -15 -15 -16 -14 -12 6 2 12 -1 24 -6 27 -5 4 -6 12
-2 18 5 8 2 8 -9 0 -8 -7 -19 -9 -23 -5 -5 4 -5 1 -1 -5 4 -8 1 -13 -9 -13
-10 0 -13 5 -9 13 5 7 0 6 -11 -3 -11 -9 -16 -10 -11 -2 5 8 0 12 -14 12 -14
0 -19 -4 -15 -12 4 -7 0 -5 -8 5 -15 18 -33 24 -22 8 6 -10 -17 -8 -49 5 -13
5 -17 4 -12 -4 6 -11 -31 -9 -42 3 -3 2 -12 -1 -21 -7 -9 -7 -5 0 9 16 l25 28
-32 -18 c-17 -10 -30 -22 -27 -25 6 -10 -24 -5 -33 6 -4 4 -3 5 3 2 7 -4 17
-1 23 7 9 11 6 12 -15 8 -17 -3 -25 -1 -21 5 4 6 -5 9 -21 8 -15 -1 -26 -7
-25 -13 2 -10 -34 -9 -44 2 -3 3 -16 1 -29 -4 -15 -6 -26 -5 -30 2 -5 7 -2 8
7 3 8 -5 10 -4 6 0 -13 15 -38 14 -43 0 -6 -15 -34 -9 -46 9 -5 7 -8 6 -8 -3
0 -9 -4 -10 -12 -4 -9 7 -22 5 -40 -7z m35 -4 c4 -9 -2 -13 -19 -13 -23 0 -23
1 -7 13 22 17 20 17 26 0z m90 -6 c3 -11 1 -18 -4 -14 -5 3 -9 12 -9 20 0 20
7 17 13 -6z m150 4 c-3 -15 -20 -15 -26 0 -4 9 0 13 11 12 9 -2 16 -7 15 -12z
m-208 -4 c3 -5 1 -10 -4 -10 -6 0 -11 5 -11 10 0 6 2 10 4 10 3 0 8 -4 11 -10z
m540 -29 c3 -5 1 -12 -5 -16 -5 -3 -10 1 -10 9 0 18 6 21 15 7z m-802 -13 c-4
-7 -8 -17 -8 -22 0 -5 -11 -10 -24 -11 -24 -2 -24 -2 5 21 33 27 39 29 27 12z
m1157 -94 c0 -2 -8 0 -19 5 -10 6 -22 7 -26 3 -5 -4 -5 -1 -1 6 5 9 12 9 27 2
10 -6 19 -13 19 -16z m310 -82 c0 -15 -2 -15 -10 -2 -13 20 -13 33 0 25 6 -3
10 -14 10 -23z m165 -31 c3 -5 2 -12 -3 -15 -5 -3 -9 1 -9 9 0 17 3 19 12 6z
m309 -69 c2 -4 0 -14 -6 -22 -8 -12 -9 -12 -4 2 3 12 -2 18 -17 21 l-22 4 22
2 c12 0 24 -3 27 -7z"/>
<path d="M1987 4519 c7 -7 15 -10 18 -7 3 3 -2 9 -12 12 -14 6 -15 5 -6 -5z"/>
<path d="M2170 4473 c0 -16 28 -36 40 -28 5 3 10 12 10 18 0 7 -4 6 -10 -3 -9
-13 -12 -12 -25 4 -8 11 -15 15 -15 9z"/>
<path d="M2587 4455 c3 -8 9 -12 14 -9 12 7 11 11 -5 17 -10 4 -13 1 -9 -8z"/>
<path d="M2646 4447 c3 -10 9 -15 12 -12 3 3 0 11 -7 18 -10 9 -11 8 -5 -6z"/>
<path d="M1853 4403 c0 -10 4 -10 11 -3 14 14 29 13 20 -2 -4 -7 -3 -8 5 -4 6
4 9 11 6 16 -8 14 -42 8 -42 -7z"/>
<path d="M2430 4406 c0 -2 8 -10 18 -17 15 -13 16 -12 3 4 -13 16 -21 21 -21
13z"/>
<path d="M2915 4390 c-3 -5 -1 -10 4 -10 6 0 11 5 11 10 0 6 -2 10 -4 10 -3 0
-8 -4 -11 -10z"/>
<path d="M3066 4363 c-6 -14 -5 -15 5 -6 7 7 10 15 7 18 -3 3 -9 -2 -12 -12z"/>
<path d="M3156 4362 c-3 -5 1 -9 9 -9 8 0 12 4 9 9 -3 4 -7 8 -9 8 -2 0 -6 -4
-9 -8z"/>
<path d="M3169 4266 c5 -6 7 -22 5 -36 -1 -14 0 -20 2 -13 3 7 11 11 17 9 7
-1 9 -1 5 1 -5 3 -8 9 -8 14 0 6 5 7 10 4 6 -3 10 1 10 9 0 10 -6 13 -17 9
-10 -4 -14 -2 -10 4 3 5 0 10 -8 10 -9 0 -11 -4 -6 -11z"/>
<path d="M3227 4256 c-4 -10 -1 -13 8 -9 8 3 12 9 9 14 -7 12 -11 11 -17 -5z"/>
<path d="M2677 4201 c-4 -17 -3 -21 5 -13 5 5 8 16 6 23 -3 8 -7 3 -11 -10z"/>
</g>
</svg>
